HIERARCHY
ROOT Hips
{
     OFFSET 8.40236 94.72830 -0.80466
     CHANNELS 6 Xposition Yposition Zposition Zrotation Xrotation Yrotation
     JOINT Spine
     {
          OFFSET 0.00000 11.89050 0.00000
          CHANNELS 3 Zrotation Xrotation Yrotation
          JOINT Spine1
          {
               OFFSET 0.00000 25.65740 0.12766
               CHANNELS 3 Zrotation Xrotation Yrotation
               JOINT HEad
               {
                    OFFSET 0.00000 8.73416 0.01134
                    CHANNELS 3 Zrotation Xrotation Yrotation
                    End Site
                    {
                         OFFSET -0.29000 12.77420 2.51395
                    }
               }
               JOINT LeftShoulder1
               {
                    OFFSET 8.99000 -0.36225 -0.22000
                    CHANNELS 3 Zrotation Xrotation Yrotation
                    JOINT LeftArm
                    {
                         OFFSET 10.28270 -0.00338 0.32212
                         CHANNELS 3 Zrotation Xrotation Yrotation
                         JOINT LeftForeArm
                         {
                              OFFSET 32.76690 0.09914 -1.42434
                              CHANNELS 3 Zrotation Xrotation Yrotation
                              JOINT LeftHand
                              {
                                   OFFSET 27.56430 0.08536 1.02216
                                   CHANNELS 3 Zrotation Xrotation Yrotation
                                   End Site
                                   {
                                        OFFSET 16.74430 -0.60000 1.50291
                                   }
                              }
                         }
                    }
               }
               JOINT RightShoulder
               {
                    OFFSET -8.99000 -0.36225 -0.22000
                    CHANNELS 3 Zrotation Xrotation Yrotation
                    JOINT RightArm
                    {
                         OFFSET -10.28270 -0.00338 0.32212
                         CHANNELS 3 Zrotation Xrotation Yrotation
                         JOINT RightForeArm
                         {
                              OFFSET -32.89710 0.09914 -1.42434
                              CHANNELS 3 Zrotation Xrotation Yrotation
                              JOINT RightHand
                              {
                                   OFFSET -27.49210 0.08536 1.02216
                                   CHANNELS 3 Zrotation Xrotation Yrotation
                                   End Site
                                   {
                                        OFFSET -16.63120 -0.60000 1.50291
                                   }
                              }
                         }
                    }
               }
          }
     }
     JOINT LeftUpLeg
     {
          OFFSET 8.94580 -8.66707 0.10165
          CHANNELS 3 Zrotation Xrotation Yrotation
          JOINT LeftLeg
          {
               OFFSET 0.00000 -44.42270 1.37270
               CHANNELS 3 Zrotation Xrotation Yrotation
               JOINT LeftFoot
               {
                    OFFSET -0.25355 -42.09240 -1.46059
                    CHANNELS 3 Zrotation Xrotation Yrotation
                    JOINT LeftToes
                    {
                         OFFSET -0.04000 -4.41509 8.49910
                         CHANNELS 3 Zrotation Xrotation Yrotation
                         End Site
                         {
                              OFFSET 0.08000 -0.04745 9.77979
                         }
                    }
               }
          }
     }
     JOINT RightUpLeg
     {
          OFFSET -8.94580 -8.66707 0.10165
          CHANNELS 3 Zrotation Xrotation Yrotation
          JOINT RightLeg
          {
               OFFSET 0.00000 -44.42270 1.37270
               CHANNELS 3 Zrotation Xrotation Yrotation
               JOINT RightFoot
               {
                    OFFSET 0.25355 -42.09240 -1.46059
                    CHANNELS 3 Zrotation Xrotation Yrotation
                    JOINT RightToes
                    {
                         OFFSET 0.04000 -4.41509 8.49910
                         CHANNELS 3 Zrotation Xrotation Yrotation
                         End Site
                         {
                              OFFSET -0.08000 -0.13745 9.77979
                         }
                    }
               }
          }
     }
}
MOTION
Frames: 12
Frame Time: 0.01667
4.94756 93.04980 3.17918 -12.92090 -10.14800 -57.66780 -10.72090 13.78280 -0.82224 -5.13881 27.04030 -3.59036 5.93727 -10.70530 6.88117 0.00000 0.00000 0.00000 -102.04900 -60.68410 -80.46380 -31.73000 43.92490 -80.42910 18.14650 7.36401 -12.28690 19.14360 0.61413 0.42769 83.79380 -1.46339 69.31260 3.60655 29.83640 108.97900 15.34600 11.45080 6.81449 23.11550 -15.96270 -16.37910 -37.96930 35.84180 88.39920 3.83389 14.76120 -0.85131 3.77775 -25.26760 -62.61520 -20.10830 3.20058 8.12015 38.43910 19.99010 -47.19930 -48.49610 -1.14752 2.81947 19.75580 -62.30180 26.78080 
5.10473 93.37510 2.83844 -12.27050 -10.11150 -56.26040 -10.97040 13.43540 -0.68089 -5.08868 26.52110 -3.64120 6.11134 -10.56370 6.56113 0.00000 0.00000 0.00000 -100.27600 -60.60020 -79.04760 -31.74760 43.85120 -80.54530 18.02770 7.38866 -12.24110 19.31370 0.60765 0.38159 83.86500 -1.42161 68.91730 3.69802 29.80160 109.21300 15.42180 11.45430 6.78658 23.37820 -15.26720 -17.76320 -38.01930 35.59800 90.20020 3.57733 14.27130 -0.78311 5.17788 -21.45390 -60.46290 -20.31240 3.61806 8.11380 38.51410 18.07380 -47.18980 -48.32290 -0.78940 2.97038 19.54460 -61.51890 27.11530 
5.25014 93.63700 2.59454 -11.59440 -9.96641 -54.68020 -10.87350 13.08470 -0.62581 -4.97066 25.94160 -3.67471 6.31623 -10.31270 6.21735 0.00000 0.00000 0.00000 -98.61210 -60.41440 -77.75990 -31.64830 43.85290 -80.66020 17.98090 7.40291 -12.19330 19.52670 0.62337 0.43446 83.97540 -1.44056 68.48450 3.78676 29.84170 109.44300 15.44690 11.44950 6.73513 23.73200 -14.39160 -19.34810 -37.69570 34.26550 91.23520 3.08040 13.78390 -0.67237 6.34948 -17.66680 -57.95920 -20.51980 4.03162 8.23314 38.75970 16.04220 -47.39290 -48.16490 -0.42800 3.12256 19.13350 -60.79450 27.01750 
5.40590 93.83960 2.45258 -10.91930 -9.73313 -52.91680 -10.42350 12.74320 -0.66404 -4.78106 25.32200 -3.70577 6.50723 -9.98098 5.85241 0.00000 0.00000 0.00000 -96.73240 -59.95580 -76.31310 -31.32690 43.58820 -80.84970 17.83420 7.43579 -12.11920 19.79910 0.66896 0.61666 84.08300 -1.52722 68.05140 3.87532 29.94940 109.65700 15.45720 11.43730 6.64122 24.12340 -13.32990 -21.00580 -36.92670 31.95070 91.21650 2.34555 13.25010 -0.52130 7.04528 -14.77500 -55.31470 -20.73460 4.42440 8.40460 39.14670 14.03570 -47.63180 -47.81060 -0.09759 3.24389 18.34610 -59.93470 26.30000 
5.59240 93.99180 2.42348 -10.28360 -9.46650 -51.00960 -9.63283 12.42000 -0.77137 -4.53195 24.69900 -3.71110 6.60429 -9.60305 5.44304 0.00000 0.00000 0.00000 -94.57810 -59.09590 -74.62940 -30.73980 42.88840 -81.14990 17.52170 7.50175 -11.98400 20.08320 0.73288 0.87590 84.16010 -1.64728 67.66930 3.92927 30.06400 109.86000 15.48600 11.42340 6.52358 24.49800 -11.98810 -22.64160 -35.68440 28.70560 90.09190 1.47137 12.60800 -0.35038 7.13526 -13.74500 -52.91020 -20.97410 4.80335 8.54732 39.61360 12.22040 -47.72450 -47.10690 0.12658 3.28706 17.06980 -58.75780 24.83770 
5.82565 94.09670 2.51761 -9.71925 -9.24755 -49.01880 -8.55690 12.12230 -0.89933 -4.25334 24.11340 -3.63979 6.54164 -9.20222 4.93230 0.00000 0.00000 0.00000 -92.39730 -57.81990 -72.90010 -29.97500 41.83130 -81.48490 17.12460 7.58972 -11.77550 20.28630 0.79142 1.11476 84.20450 -1.80625 67.38690 3.92046 30.12270 110.06200 15.52830 11.41510 6.43602 24.82070 -10.23360 -24.14620 -34.00580 24.54540 88.00780 0.71866 11.82890 -0.20828 6.68658 -15.02420 -51.13080 -21.28040 5.20050 8.63418 40.11810 10.71220 -47.62730 -46.08500 0.11308 3.19842 15.37710 -57.18460 22.71270 
6.11987 94.15860 2.72425 -9.23244 -9.14540 -46.96900 -7.30328 11.85970 -1.00612 -3.98691 23.59910 -3.45893 6.30749 -8.79636 4.26560 0.00000 0.00000 0.00000 -90.35550 -56.13510 -71.31270 -29.12960 40.47990 -81.75270 16.75530 7.67693 -11.53370 20.33570 0.82913 1.27668 84.25220 -2.07511 67.22730 3.85989 30.11810 110.27100 15.55460 11.41620 6.42649 25.09640 -8.02083 -25.34590 -32.01670 19.54850 85.16960 0.39210 10.96860 -0.14489 5.95264 -17.90590 -50.18310 -21.69680 5.67416 8.70926 40.64700 9.47578 -47.45320 -44.93960 -0.25086 2.95397 13.51250 -55.26800 20.23590 
6.47750 94.18810 2.99562 -8.77331 -9.21292 -44.83760 -6.07130 11.64560 -1.06288 -3.79052 23.18430 -3.17625 5.93540 -8.41444 3.42669 0.00000 0.00000 0.00000 -88.39400 -53.99860 -69.94690 -28.18450 38.72760 -81.93360 16.45220 7.74886 -11.32360 20.22810 0.84492 1.36079 84.36420 -2.50829 67.18800 3.78174 30.09910 110.49800 15.54770 11.42540 6.49591 25.04480 -6.15336 -25.82550 -30.14910 15.46970 81.82500 -0.14986 9.97792 -0.05250 5.23565 -20.93100 -50.08160 -22.27090 6.25790 8.86333 41.20830 8.37489 -47.42940 -43.87500 -1.00037 2.56690 11.78380 -53.18780 17.85690 
6.88893 94.18760 3.28001 -8.26426 -9.45776 -42.57600 -5.07023 11.48840 -1.06514 -3.72381 22.88080 -2.83228 5.47586 -8.08062 2.43974 0.00000 0.00000 0.00000 -86.40470 -51.39410 -68.85520 -27.05730 36.43370 -82.06410 16.18020 7.80328 -11.20160 20.02750 0.84585 1.39114 84.57660 -3.09205 67.25270 3.71864 30.12270 110.75500 15.52030 11.43790 6.60324 24.58140 -4.79052 -25.36440 -28.35020 12.62140 77.92890 -0.90245 9.10523 0.06130 4.71369 -23.07990 -50.74830 -23.01930 6.89424 9.15880 41.81770 7.36829 -47.80590 -42.93790 -2.13034 2.05172 10.41130 -51.14900 15.99250 
7.33767 94.13040 3.55001 -7.64931 -9.83531 -40.14850 -4.42526 11.38130 -1.03601 -3.81612 22.66840 -2.48134 5.00793 -7.79410 1.35376 0.00000 0.00000 0.00000 -84.36370 -48.43930 -68.08920 -25.71610 33.61960 -82.15860 15.90180 7.84390 -11.18400 19.83780 0.84551 1.41468 84.87030 -3.79401 67.39620 3.71772 30.22610 111.00900 15.52620 11.45320 6.70703 23.74090 -3.96140 -23.97350 -26.61200 10.90910 73.55990 -1.72397 8.59312 0.17649 4.39761 -24.23620 -52.03910 -23.88930 7.39403 9.53263 42.47770 6.71308 -48.76270 -42.00930 -3.64448 1.40739 9.46157 -49.29920 14.86390 
7.75900 94.13270 3.70209 -6.88327 -10.30180 -37.61230 -4.13435 11.30200 -0.97486 -4.03575 22.50200 -2.16521 4.62752 -7.53000 0.21934 0.00000 0.00000 0.00000 -82.34260 -45.39430 -67.66770 -24.21100 30.51800 -82.19980 15.61280 7.87917 -11.21710 19.73300 0.85883 1.48951 85.20990 -4.59473 67.58790 3.82923 30.41800 111.20000 15.62760 11.47640 6.80119 22.67380 -3.43990 -21.94520 -24.93600 9.65029 68.99460 -2.26745 8.70120 0.25478 4.20433 -24.79120 -53.75410 -24.79620 7.92256 9.97819 43.04850 5.93160 -49.98510 -41.34280 -5.14983 0.79996 8.87024 -47.74150 14.39490 
8.13492 94.18240 3.74601 -6.04412 -10.76080 -35.06140 -4.09221 11.23130 -0.89830 -4.33550 22.34320 -1.88782 4.38375 -7.24579 -0.90389 0.00000 0.00000 0.00000 -80.50020 -42.58440 -67.57890 -22.65160 27.50210 -82.16210 15.31780 7.92092 -11.20770 19.69530 0.89167 1.64470 85.59190 -5.45629 67.80390 4.03527 30.66550 111.29800 15.82650 11.51210 6.91514 21.49550 -3.23138 -19.60660 -23.40080 8.80035 64.59280 -2.51935 9.37064 0.30120 4.03548 -25.17680 -55.66020 -25.58700 8.37784 10.39250 43.47420 5.21551 -51.17010 -40.89580 -6.42735 0.30045 8.50155 -46.53240 14.26160 
